# xmcd CD database file
#
# Track frame offsets:
#	150
#	26069
#	46528
#	64262
#	97248
#	122726
#	143074
#	169131
#	191209
#	202562
#	220841
#	244881
#
# Disc length: 3467 seconds
#
# Revision: 5
# Processed by: cddbd v1.5.2PL0 Copyright (c) Steve Scherf et al.
# Submitted via: CDex 1.79
#
DISCID=ac0d890c
DTITLE=Zucchero Sugar Fornaciari - Oro Incenso and Birra [International Version][2019 Remastered]
DYEAR=1989
DGENRE=Blues
TTITLE0=Diamante
TTITLE1=Wonderful world
TTITLE2=Il mare
TTITLE3=Mama
TTITLE4=Dunes of mercy
TTITLE5=Senza una donna
TTITLE6=You're losing me
TTITLE7=Solo una sana
TTITLE8=You've chosen me
TTITLE9=Diavolo in me
TTITLE10=Overdose (d'amore)
TTITLE11=Nice (Nietzsche) che dice
EXTD=YEAR: 1989
EXTT0=
EXTT1=featuring Eric Clapton
EXTT2=
EXTT3=
EXTT4=
EXTT5=Without a woman, featuring Paul Young
EXTT6=
EXTT7=
EXTT8=
EXTT9=
EXTT10=
EXTT11=
PLAYORDER=
